<?xml version="1.0" standalone="no"?><!DOCTYPE svg PUBLIC "-//W3C//DTD SVG 1.1//EN" "http://www.w3.org/Graphics/SVG/1.1/DTD/svg11.dtd"><svg class="icon" width="18px" height="18.00px" viewBox="0 0 1024 1024" version="1.1" xmlns="http://www.w3.org/2000/svg"><path fill="#62BEFF" d="M512 950.183807c-242.002706 0-438.183807-196.182125-438.183807-438.183807S269.997294 73.816193 512 73.816193s438.183807 196.182125 438.183807 438.183807S754.001683 950.183807 512 950.183807zM512 119.940696c-216.527498 0-392.059304 175.531805-392.059304 392.059304s175.531805 392.059304 392.059304 392.059304 392.059304-175.531805 392.059304-392.059304S728.526475 119.940696 512 119.940696zM558.124504 581.186755 442.812221 581.186755l0 184.498014-46.124504 0L396.687718 581.186755l0-46.124504L396.687718 350.564237l0-46.124504 46.124504 0 115.311259 0c76.419484 0 138.373511 61.949934 138.373511 138.373511S634.543987 581.186755 558.124504 581.186755zM558.124504 350.564237 442.812221 350.564237l0 184.498014 115.311259 0c50.949392 0 92.25003-41.300638 92.25003-92.25003S609.072873 350.564237 558.124504 350.564237z" /></svg>