<?xml version="1.0" standalone="no"?><!DOCTYPE svg PUBLIC "-//W3C//DTD SVG 1.1//EN" "http://www.w3.org/Graphics/SVG/1.1/DTD/svg11.dtd"><svg class="icon" width="18px" height="18.00px" viewBox="0 0 1024 1024" version="1.1" xmlns="http://www.w3.org/2000/svg"><path fill="#62BEFF" d="M927.245376 477.994512c-91.029226-131.780349-242.965637-218.263026-415.245376-218.263026s-324.216149 86.482677-415.245376 218.263026l-37.229926-34.369785c100.564393-141.638881 265.537725-234.347352 452.475302-234.347352s351.910908 92.708472 452.475302 234.347352L927.245376 477.994512zM512 360.638687c143.011134 0 268.348748 74.585719 340.04772 186.764638l-37.785581 34.879392c-61.826114-102.45137-173.874049-171.189917-302.264185-171.189917s-240.438071 68.738547-302.264185 171.189917l-37.785581-34.879392C243.651252 435.223383 368.988866 360.638687 512 360.638687zM512 512c99.206466 0 184.791703 57.406454 225.993081 140.686183l-38.960337 35.96819C669.092851 614.688777 596.697007 562.454112 512 562.454112S354.907149 614.688777 324.967256 688.654372l-38.96136-35.96819C327.208297 569.406454 412.792511 512 512 512zM512 713.815425c27.865651 0 50.454112 22.587438 50.454112 50.454112 0 27.865651-22.587438 50.454112-50.454112 50.454112-27.865651 0-50.454112-22.587438-50.454112-50.454112C461.545888 736.402863 484.133326 713.815425 512 713.815425z" /></svg>