<?xml version="1.0" standalone="no"?><!DOCTYPE svg PUBLIC "-//W3C//DTD SVG 1.1//EN" "http://www.w3.org/Graphics/SVG/1.1/DTD/svg11.dtd"><svg class="icon" width="32px" height="32.00px" viewBox="0 0 1024 1024" version="1.1" xmlns="http://www.w3.org/2000/svg"><path d="M399.661 112H885c33.137 0 60 26.971 60 60.241v562.253H79V172.241C79 138.971 105.863 112 139 112h61.741M334.072 112h18.078" fill="#FFFFFF" /><path d="M352.15 127h-18.078c-8.284 0-15-6.716-15-15s6.716-15 15-15h18.078c8.284 0 15 6.716 15 15s-6.715 15-15 15z" fill="#2F195F" /><path d="M127.926 148.382h768.149v542.172H127.926z" fill="#7353BA" /><path d="M79 719.918V172.241C79 138.971 105.863 112 139 112h69.886c111.61 0 160.918 141.269 73.61 211.078-45.002 35.982-101.709 57.584-163.331 57.584H98.231s157.818 103.319 157.818 339.257" fill="#F52F57" /><path d="M256.05 734.918c-8.284 0-15-6.716-15-15 0-117.91-41.395-200.703-76.122-249.396-30.243-42.405-60.337-66.638-70.928-74.478v323.873c0 8.284-6.716 15-15 15s-15-6.716-15-15V172.241C64 130.753 97.645 97 139 97h69.886c29.575 0 57.177 9.036 79.823 26.132 20.952 15.817 36.743 37.629 45.667 63.08 8.947 25.518 10.229 52.507 3.706 78.049-7.05 27.604-23.032 51.994-46.218 70.532-24.137 19.299-50.958 34.333-79.721 44.684a273.372 273.372 0 0 1-73.133 15.476c14.559 13.794 32.445 33.056 50.343 58.151 23.743 33.292 42.657 70.091 56.217 109.375 16.907 48.983 25.48 101.954 25.48 157.439 0 8.284-6.716 15-15 15zM139 127c-24.813 0-45 20.295-45 45.241v194.028a14.98 14.98 0 0 1 4.231-0.608h20.934c56.297 0 109.537-18.776 153.964-54.299 42.232-33.768 44.705-81.662 32.937-115.224-11.72-33.423-43.403-69.138-97.18-69.138H139z" fill="#2F195F" /><path d="M334.376 186.212c-8.924-25.45-24.715-47.263-45.667-63.08C266.063 106.036 238.461 97 208.886 97H139c-41.355 0-75 33.753-75 75.241v547.677c0 8.284 6.716 15 15 15s15-6.716 15-15V430.527c14.209 68.419 36.233 195.156 19.541 257.129-2.154 8 2.583 16.23 10.583 18.385a14.97 14.97 0 0 0 3.91 0.521c6.615 0 12.672-4.41 14.475-11.103 15.292-56.775 2.252-157.166-11.06-230.138 22.863 41.295 44.399 86.116 45.609 109.156 0.435 8.273 7.463 14.618 15.766 14.193 8.272-0.435 14.627-7.493 14.193-15.766-0.948-18.052-9.899-44.375-27.194-79.842 30.644 50.104 61.227 125.508 61.227 226.856 0 8.284 6.716 15 15 15s15-6.716 15-15c0-55.485-8.573-108.456-25.48-157.439-13.56-39.284-32.474-76.083-56.217-109.375-17.897-25.095-35.784-44.357-50.343-58.151a273.334 273.334 0 0 0 73.133-15.476c28.762-10.351 55.584-25.384 79.721-44.684 23.186-18.539 39.168-42.928 46.218-70.532 6.522-25.542 5.241-52.531-3.706-78.049z m-61.247 125.15c-15.756 12.598-32.625 23.078-50.342 31.373 27.846-21.354 51.958-50.051 59.183-87.591 1.566-8.135-3.76-15.999-11.895-17.564-8.139-1.57-16 3.76-17.564 11.895-8.33 43.285-47.691 73.079-83.576 91.719l0.073-0.102c22.27-31.506 46.878-83.996 37.65-155.138-1.066-8.215-8.586-14.011-16.805-12.946-8.215 1.066-14.011 8.59-12.946 16.805 6.354 48.986-4.318 93.733-31.72 132.999-16.083 23.044-33.577 37.455-40.752 42.85H98.23c-0.157 0-0.311 0.012-0.467 0.017-0.163 0.005-0.326 0.007-0.489 0.018-0.319 0.02-0.635 0.053-0.95 0.093-0.08 0.01-0.161 0.015-0.241 0.026a15.04 15.04 0 0 0-1.183 0.223c-0.108 0.025-0.216 0.056-0.324 0.083-0.193 0.048-0.387 0.092-0.577 0.148V172.241C94 147.295 114.187 127 139 127h69.886c53.776 0 85.46 35.715 97.18 69.139 11.768 33.562 9.295 81.456-32.937 115.223z" fill="#2F195F" /><path d="M945.199 719.918V172.241c0-33.27-26.863-60.241-60-60.241H650.124v2.687c0 146.894 108.604 265.975 254.909 265.975h20.934S768.149 483.981 768.149 719.919" fill="#F52F57" /><path d="M960.199 172.241c0-41.488-33.645-75.241-75-75.241H399.661c-8.284 0-15 6.716-15 15s6.716 15 15 15h235.721c2.795 70.857 29.674 136.534 76.425 186.056 45.78 48.493 106.747 77.151 173.377 81.901-14.558 13.793-32.442 33.055-50.337 58.146-23.744 33.292-42.657 70.091-56.217 109.375-16.865 48.858-25.433 101.685-25.476 157.016H94V172.241C94 147.295 114.187 127 139 127h61.741c8.284 0 15-6.716 15-15s-6.716-15-15-15H139c-41.355 0-75 33.753-75 75.241v562.253c0 8.284 6.716 15 15 15h866c8.284 0 15-6.716 15-15v-12.245c0.119-0.762 0.199-1.536 0.199-2.331V172.241zM665.395 127H885c24.813 0 45 20.295 45 45.241v193.977c-0.646-0.18-1.306-0.32-1.98-0.413-0.135-0.019-0.27-0.029-0.405-0.044a14.495 14.495 0 0 0-0.755-0.068c-0.161-0.01-0.321-0.013-0.482-0.017-0.137-0.004-0.272-0.015-0.41-0.015h-6.042c-16.02-12.6-82.167-71.532-68.635-175.849 1.066-8.216-4.73-15.739-12.945-16.805-8.228-1.069-15.739 4.731-16.805 12.946-9.062 69.858 13.466 121.729 34.449 153.354-34.951-19.254-73.169-49.08-82.394-90.275-1.811-8.084-9.826-13.171-17.916-11.36-8.084 1.811-13.17 9.832-11.359 17.916 8.708 38.885 36.3 68.747 66.593 90.683C727.843 310.166 669.808 227.124 665.395 127z m117.757 592.494c0.088-103.646 32.182-180.079 63.363-229.885-9.652 24.592-17.938 52.1-22.779 81.657-1.339 8.176 4.203 15.889 12.378 17.228 8.167 1.339 15.889-4.203 17.228-12.378 7.474-45.628 24.204-86.531 40.791-118.266-13.758 73.446-28.263 178.87-12.441 237.609 1.803 6.692 7.858 11.103 14.475 11.103 1.29 0 2.604-0.168 3.91-0.521 7.999-2.154 12.737-10.385 10.582-18.385-16.614-61.685 5.128-187.532 19.343-256.171v288.008h-146.85z" fill="#2F195F" /><path d="M849.244 624.87c0.014-8.284-6.69-15.012-14.975-15.025h-0.026c-8.271 0-14.985 6.699-14.999 14.975-0.013 7.407 0.24 14.863 0.75 22.161 0.554 7.907 7.141 13.954 14.948 13.954 0.352 0 0.706-0.013 1.063-0.037 8.264-0.578 14.494-7.746 13.917-16.011a280.77 280.77 0 0 1-0.678-20.017z" fill="#2F195F" /><path d="M257.741 838.225h-114v-78.53c0-19.75 15.947-35.761 35.618-35.761h42.764c19.671 0 35.618 16.011 35.618 35.761v78.53z" fill="#F52F57" /><path d="M257.741 853.225h-114c-8.284 0-15-6.716-15-15v-78.529c0-27.99 22.707-50.762 50.618-50.762h42.764c27.911 0 50.618 22.771 50.618 50.762v78.529c0 8.284-6.716 15-15 15z m-99-30h84v-63.529c0-11.448-9.249-20.762-20.618-20.762h-42.764c-11.369 0-20.618 9.313-20.618 20.762v63.529z" fill="#2F195F" /><path d="M413.371 838.225h-114v-78.53c0-19.75 15.947-35.761 35.618-35.761h42.764c19.671 0 35.618 16.011 35.618 35.761v78.53z" fill="#F52F57" /><path d="M413.371 853.225h-114c-8.284 0-15-6.716-15-15v-78.529c0-27.99 22.707-50.762 50.618-50.762h42.764c27.911 0 50.618 22.771 50.618 50.762v78.529c0 8.284-6.716 15-15 15z m-99-30h84v-63.529c0-11.448-9.249-20.762-20.618-20.762h-42.764c-11.369 0-20.618 9.313-20.618 20.762v63.529z" fill="#2F195F" /><path d="M569 838.225H455v-78.53c0-19.75 15.947-35.761 35.618-35.761h42.764c19.671 0 35.618 16.011 35.618 35.761v78.53z" fill="#F52F57" /><path d="M569 853.225H455c-8.284 0-15-6.716-15-15v-78.529c0-27.99 22.707-50.762 50.618-50.762h42.764c27.911 0 50.618 22.771 50.618 50.762v78.529c0 8.284-6.716 15-15 15z m-99-30h84v-63.529c0-11.448-9.249-20.762-20.618-20.762h-42.764c-11.369 0-20.618 9.313-20.618 20.762v63.529z" fill="#2F195F" /><path d="M724.629 838.225h-114v-78.53c0-19.75 15.947-35.761 35.618-35.761h42.764c19.671 0 35.618 16.011 35.618 35.761v78.53z" fill="#F52F57" /><path d="M724.63 853.225h-114c-8.284 0-15-6.716-15-15v-78.529c0-27.99 22.707-50.762 50.617-50.762h42.765c27.911 0 50.618 22.771 50.618 50.762v78.529c0 8.284-6.716 15-15 15z m-99-30h84v-63.529c0-11.448-9.249-20.762-20.618-20.762h-42.765c-11.368 0-20.617 9.313-20.617 20.762v63.529z" fill="#2F195F" /><path d="M880.259 838.225h-114v-78.53c0-19.75 15.947-35.761 35.618-35.761h42.764c19.671 0 35.618 16.011 35.618 35.761v78.53z" fill="#F52F57" /><path d="M880.259 853.225h-114c-8.284 0-15-6.716-15-15v-78.529c0-27.99 22.707-50.762 50.618-50.762h42.764c27.911 0 50.618 22.771 50.618 50.762v78.529c0 8.284-6.716 15-15 15z m-99-30h84v-63.529c0-11.448-9.249-20.762-20.618-20.762h-42.764c-11.369 0-20.618 9.313-20.618 20.762v63.529z" fill="#2F195F" /><path d="M192.519 912h-114v-78.728a35.879 35.879 0 0 1 15.707-29.731 35.293 35.293 0 0 1 19.911-6.121h42.764c19.671 0 35.618 16.051 35.618 35.852V912z" fill="#F52F57" /><path d="M192.519 927h-114c-8.284 0-15-6.716-15-15V702.384c0-8.284 6.716-15 15-15s15 6.716 15 15V897h84v-63.729c0-11.498-9.249-20.852-20.618-20.852h-13.159c-8.284 0-15-6.716-15-15s6.716-15 15-15H156.9c27.911 0 50.618 22.812 50.618 50.852V912c0.001 8.284-6.715 15-14.999 15z" fill="#2F195F" /><path d="M343.111 912h-114v-78.728c0-19.8 15.947-35.852 35.618-35.852h42.764c19.671 0 35.618 16.051 35.618 35.852V912z" fill="#F52F57" /><path d="M343.111 927h-114c-8.284 0-15-6.716-15-15v-78.729c0-28.04 22.707-50.852 50.618-50.852h42.764c27.911 0 50.618 22.812 50.618 50.852V912c0 8.284-6.715 15-15 15z m-99-30h84v-63.729c0-11.498-9.249-20.852-20.618-20.852h-42.764c-11.369 0-20.618 9.354-20.618 20.852V897z" fill="#2F195F" /><path d="M608.678 797.42c19.671 0 35.618 16.051 35.618 35.852V912H379.704v-78.728c0-19.8 15.947-35.852 35.618-35.852h193.356z" fill="#F52F57" /><path d="M644.296 927H379.704c-8.284 0-15-6.716-15-15v-78.729c0-28.04 22.707-50.852 50.618-50.852h193.357c27.91 0 50.617 22.812 50.617 50.852V912c0 8.284-6.716 15-15 15z m-249.592-30h234.592v-63.729c0-11.498-9.249-20.852-20.617-20.852H415.322c-11.369 0-20.618 9.354-20.618 20.852V897z" fill="#2F195F" /><path d="M794.889 912h-114v-78.728c0-19.8 15.947-35.852 35.618-35.852h42.764c19.671 0 35.618 16.051 35.618 35.852V912z" fill="#F52F57" /><path d="M794.889 927h-114c-8.284 0-15-6.716-15-15v-78.729c0-28.04 22.707-50.852 50.618-50.852h42.764c27.911 0 50.618 22.812 50.618 50.852V912c0 8.284-6.716 15-15 15z m-99-30h84v-63.729c0-11.498-9.249-20.852-20.618-20.852h-42.764c-11.369 0-20.618 9.354-20.618 20.852V897z" fill="#2F195F" /><path d="M945.481 912h-114v-78.728c0-19.8 15.947-35.852 35.618-35.852h42.764c19.671 0 35.618 16.051 35.618 35.852V912z" fill="#F52F57" /><path d="M945.481 927h-114c-8.284 0-15-6.716-15-15v-78.729c0-28.04 22.707-50.852 50.618-50.852h13.159c8.284 0 15 6.716 15 15s-6.716 15-15 15H867.1c-11.369 0-20.618 9.354-20.618 20.852V897h84V705.841c0-8.284 6.716-15 15-15s15 6.716 15 15V912c-0.001 8.284-6.716 15-15.001 15z" fill="#2F195F" /><path d="M513.333 850.233H424.16c-5.523 0-10-4.478-10-10s4.477-10 10-10h89.173c5.522 0 10 4.478 10 10s-4.478 10-10 10z" fill="#FFFFFF" /><path d="M571 849.785h-11.173c-5.522 0-10-4.478-10-10s4.478-10 10-10H571c5.522 0 10 4.478 10 10s-4.478 10-10 10z" fill="#FFFFFF" /></svg>