<?xml version="1.0" standalone="no"?><!DOCTYPE svg PUBLIC "-//W3C//DTD SVG 1.1//EN" "http://www.w3.org/Graphics/SVG/1.1/DTD/svg11.dtd"><svg class="icon" width="18px" height="18.00px" viewBox="0 0 1024 1024" version="1.1" xmlns="http://www.w3.org/2000/svg"><path fill="#62BEFF" d="M512 947.001325c-240.243643 0-435.001325-194.756659-435.001325-435.001325S271.756357 76.998675 512 76.998675s435.001325 194.756659 435.001325 435.001325S752.243643 947.001325 512 947.001325zM512 122.788557c-214.954677 0-389.211443 174.256766-389.211443 389.211443s174.256766 389.211443 389.211443 389.211443 389.211443-174.257789 389.211443-389.211443S726.953653 122.788557 512 122.788557zM718.79074 718.052936 500.92271 718.052936c-49.246611-2.477424-91.711771-17.216103-127.400598-44.219107-1.240247 1.236154-3.086291 2.472308-5.54018 3.680832-19.702738 18.425651-38.165228 30.693046-55.387471 36.851303-11.081383 3.686972-19.098987 0.608867-24.00267-9.212826-4.935406-12.295024-2.482541-20.903076 7.386224-25.798573 36.924981-13.499455 55.996338-33.165354 57.236586-58.95881L353.214601 520.896624c0-12.267395-5.54018-18.425651-16.617469-18.425651L299.66908 502.470973c-9.867742-1.208525-15.402805-7.976672-16.617469-20.266579 1.213641-11.05887 6.748704-17.189498 16.617469-18.430768l59.08263 0c20.917402 0 31.388894 10.454096 31.388894 31.324426l0 114.239857c3.695159 44.223201 38.774095 67.571978 105.242949 70.016657l223.407186 0c13.531178 1.208525 20.917402 7.976672 22.157649 20.271696C739.707119 710.681038 732.321918 716.812689 718.79074 718.052936zM696.637184 635.137505c8.594749 12.295024 8.594749 22.1116 0 29.479405-9.867742 7.371898-19.706831 6.163373-29.54285-3.686972-39.406498-45.427632-87.411839-87.207178-144.017044-125.294634-8.622378-6.131651-9.231245-14.739702-1.845021-25.793456 8.599865-8.580422 17.222243-9.821693 25.848715-3.686972 18.466584 11.05273 39.98876 27.034726 64.62281 47.905056 23.366174-17.184381 41.833781-33.165354 55.391565-47.905056 8.599865-8.580422 17.831111-9.212826 27.693736-1.845021 8.599865 9.844206 8.599865 19.662829 0 29.479405-12.317537 13.535271-30.175253 28.274974-53.54245 44.228317C654.776797 590.308507 673.239288 609.339956 696.637184 635.137505zM663.399175 491.413126 475.075019 491.413126l0 128.984676c0 2.476401 0.604774 3.686972 1.845021 3.686972 0 1.236154 1.208525 1.236154 3.691065 0 24.607444-12.267395 43.074028-23.956621 55.391565-35.011398 11.076266-8.580422 20.917402-8.580422 29.54285 0 7.382131 9.844206 5.536087 19.662829-5.54018 29.479405-22.157649 17.216103-48.64286 33.165354-79.394235 47.90915-28.330232 9.844206-43.10268 1.236154-44.311205-25.798573L436.299901 340.326059c-2.482541-23.321148 9.231245-34.378995 35.07996-33.17047l188.328249 0c24.607444-1.208525 36.292578 9.212826 35.07996 31.324426L694.78807 461.933721C693.546799 480.359372 683.074284 490.203578 663.399175 491.413126zM657.863089 358.746594c1.208525-12.262278-3.086291-17.793248-12.926404-16.584724L487.99733 342.16187c-9.867742 0-14.771425 5.531993-14.771425 16.584724l0 20.271696 184.637184 0L657.863089 358.746594zM657.863089 414.028665 473.224882 414.028665l0 40.533159 171.71078 0c9.840112 0 14.134929-3.680832 12.926404-11.05273L657.862066 414.028665zM369.83207 415.869592c-8.626471-12.267395-24.64019-31.9292-48.00534-58.962903-3.695159-3.686972-6.1777-6.135744-7.386224-7.371898-8.626471-8.580422-9.231245-17.189498-1.845021-25.793456 9.836019-7.371898 19.676132-6.736425 29.538757 1.840928 19.675108 18.425651 39.378869 41.774429 59.08263 70.016657 7.386224 11.05887 6.144954 20.271696-3.691065 27.638477C387.658064 429.399747 378.426819 426.922323 369.83207 415.869592z" /></svg>