<?xml version="1.0" standalone="no"?><!DOCTYPE svg PUBLIC "-//W3C//DTD SVG 1.1//EN" "http://www.w3.org/Graphics/SVG/1.1/DTD/svg11.dtd"><svg class="icon" width="18px" height="18.00px" viewBox="0 0 1024 1024" version="1.1" xmlns="http://www.w3.org/2000/svg"><path fill="#62BEFF" d="M958.316022 714.227818c0 49.303916-39.966247 89.270163-89.270163 89.270163L712.821795 803.49798c-88.525196 0-164.785044-51.674916-200.858634-126.384455-36.078707 74.710562-112.333438 126.384455-200.858634 126.384455L154.880463 803.49798c-49.303916 0-89.270163-39.966247-89.270163-89.270163L65.6103 491.050876c0-33.56956 22.072715-56.540737 46.143946-77.705779l188.986235-188.986235 1.861394-1.74883c4.699022-4.360308 11.017938-0.909719 15.799848 0.994654l63.909565 23.108301c5.954619 1.593288 9.485025 7.712659 7.891737 13.667278l-5.77554 21.553898c-1.593288 5.949502-7.712659 9.485025-13.667278 7.891737l-53.147454-19.215644L186.442296 401.780713l213.932394 0 44.635593 0 133.905756 0 44.635593 0 235.929384 0L730.649835 272.948509l-42.572608 15.702634c-5.628184 1.540076-11.412934-1.865487-12.922311-7.610328l-5.458315-20.791535c-1.509377-5.743818 1.829671-11.645225 7.458879-13.1853l60.413951-22.286586c1.865487-0.5137 3.784186-1.387603 5.102205-1.658779l2.035356 0.119727 191.292768 191.292768 5.580089 5.193279c18.872836 18.300808 16.738219 44.230364 16.738219 71.324442L958.316022 714.227818 958.316022 714.227818zM913.680429 491.050876c0-24.65247-19.984147-44.635593-44.635593-44.635593L623.551632 446.415282l-44.635593 0L445.00926 446.415282l-44.635593 0L154.880463 446.415282c-24.65247 0-44.635593 19.984147-44.635593 44.635593l0 223.176942c0 24.647353 19.984147 44.635593 44.635593 44.635593l156.224064 0c74.912154 0 138.941446-46.183855 165.440983-111.588471l70.836325 0c26.500561 65.403592 90.528829 111.588471 165.440983 111.588471l156.224064 0c24.65247 0 44.635593-19.98824 44.635593-44.635593L913.682475 491.050876 913.680429 491.050876zM824.410266 714.227818l-89.270163 0c-73.956386 0-133.905756-59.94937-133.905756-133.905756l0-44.635593c0-24.65247 19.984147-44.635593 44.635593-44.635593L824.410266 491.050876c24.65247 0 44.635593 19.984147 44.635593 44.635593l0 133.905756C869.045859 694.243671 849.061712 714.227818 824.410266 714.227818zM824.410266 558.003753c0-12.328793-9.993608-22.318308-22.318308-22.318308L668.186202 535.685445c-12.323677 0-22.318308 9.989515-22.318308 22.318308l0 22.318308c0 49.303916 39.966247 89.270163 89.270163 89.270163l66.952878 0c12.323677 0 22.318308-9.993608 22.318308-22.318308L824.410266 558.003753 824.410266 558.003753zM288.786219 714.227818l-89.270163 0c-24.65247 0-44.635593-19.984147-44.635593-44.635593L154.880463 535.686469c0-24.65247 19.984147-44.635593 44.635593-44.635593l178.541349 0c24.65247 0 44.635593 19.984147 44.635593 44.635593l0 44.635593C422.692998 654.277424 362.742605 714.227818 288.786219 714.227818zM378.056382 558.003753c0-12.328793-9.993608-22.318308-22.318308-22.318308L221.832318 535.685445c-12.323677 0-22.318308 9.989515-22.318308 22.318308l0 89.270163c0 12.323677 9.993608 22.318308 22.318308 22.318308l66.952878 0c49.303916 0 89.270163-39.966247 89.270163-89.270163l0-22.318308L378.056382 558.003753z" /></svg>