<?xml version="1.0" standalone="no"?><!DOCTYPE svg PUBLIC "-//W3C//DTD SVG 1.1//EN" "http://www.w3.org/Graphics/SVG/1.1/DTD/svg11.dtd"><svg class="icon" width="28px" height="28.00px" viewBox="0 0 1024 1024" version="1.1" xmlns="http://www.w3.org/2000/svg"><path fill="#1296db" d="M863.9 843.1H667.7c124.7-59 210.9-185.9 210.9-333 0-203.4-164.8-368.2-368.2-368.2S142.2 306.7 142.2 510.1c0 202.3 163 366.3 364.8 368.2h356.9c9.7 0 17.6-7.9 17.6-17.6 0-9.7-7.9-17.6-17.6-17.6z m-160.5-419c48.4 0 87.7 39.4 87.7 87.7 0.1 48.3-39.3 87.7-87.7 87.7-48.4 0-87.7-39.4-87.7-87.7 0-48.4 39.4-87.7 87.7-87.7zM510.4 231c48.4 0 87.7 39.4 87.7 87.7 0 48.4-39.3 87.7-87.7 87.7-48.4 0-87.7-39.4-87.7-87.7 0-48.4 39.4-87.7 87.7-87.7zM563 510.5c0 29.1-23.6 52.6-52.6 52.6s-52.6-23.5-52.6-52.6 23.6-52.6 52.6-52.6 52.6 23.6 52.6 52.6z m-245.6 89c-48.4 0-87.7-39.4-87.7-87.7 0-48.4 39.4-87.7 87.7-87.7 48.4 0 87.7 39.4 87.7 87.7 0 48.3-39.3 87.7-87.7 87.7z m105.3 105.3c0-48.4 39.4-87.7 87.7-87.7 48.4 0 87.7 39.4 87.7 87.7 0 48.3-39.3 87.7-87.7 87.7-48.4 0-87.7-39.4-87.7-87.7z" /></svg>