<?xml version="1.0" standalone="no"?><!DOCTYPE svg PUBLIC "-//W3C//DTD SVG 1.1//EN" "http://www.w3.org/Graphics/SVG/1.1/DTD/svg11.dtd"><svg class="icon" width="18px" height="18.00px" viewBox="0 0 1024 1024" version="1.1" xmlns="http://www.w3.org/2000/svg"><path fill="#333333" d="M505.6 700.8l80 80H512c-147.2 0-268.8-120-268.8-268.8 0-72 27.2-139.2 78.4-188.8l-28.8-28.8c-57.6 57.6-89.6 136-89.6 217.6 0 169.6 137.6 307.2 307.2 307.2h121.6l14.4-33.6-112-113.6-28.8 28.8zM512 204.8h-105.6l-14.4 33.6 113.6 113.6 28.8-28.8-80-80H512c147.2 0 268.8 120 268.8 268.8 0 72-27.2 139.2-78.4 188.8l28.8 28.8c57.6-57.6 89.6-136 89.6-217.6 0-169.6-137.6-307.2-308.8-307.2z"  /></svg>