<?xml version="1.0" standalone="no"?><!DOCTYPE svg PUBLIC "-//W3C//DTD SVG 1.1//EN" "http://www.w3.org/Graphics/SVG/1.1/DTD/svg11.dtd"><svg class="icon" width="24px" height="24.00px" viewBox="0 0 1024 1024" version="1.1" xmlns="http://www.w3.org/2000/svg"><path fill="#ffffff" d="M128 832a32 32 0 0 1 0-64h768a32 32 0 0 1 0 64zM480 96a32 32 0 0 1 64 0v64a32 32 0 0 1-64 0zM572.48 811.52A32 32 0 0 1 632 788.48a116.8 116.8 0 0 1 8 43.52 128 128 0 0 1-256 0 116.8 116.8 0 0 1 8-43.52 32 32 0 0 1 59.52 23.04A59.84 59.84 0 0 0 448 832a64 64 0 0 0 128 0 59.84 59.84 0 0 0-3.52-20.48zM256 800h-64V395.84C192 246.72 337.28 128 512 128a352 352 0 0 1 224 76.48 247.04 247.04 0 0 1 96 192V800h-64V395.84a183.36 183.36 0 0 0-73.28-141.76A288 288 0 0 0 512 192c-142.08 0-256 93.44-256 203.84z" /></svg>