<?xml version="1.0" standalone="no"?><!DOCTYPE svg PUBLIC "-//W3C//DTD SVG 1.1//EN" "http://www.w3.org/Graphics/SVG/1.1/DTD/svg11.dtd"><svg class="icon" width="160px" height="155.74px" viewBox="0 0 1052 1024" version="1.1" xmlns="http://www.w3.org/2000/svg"><path fill="#1296db" d="M80.64 377.856l-4.608-5.248c3.328-2.56 7.168-5.248 11.136-8.576l3.968 5.248c-3.968 3.328-7.296 5.888-10.496 8.576z m15.616-11.776l-3.968-5.888c7.808-5.248 15.104-9.856 23.552-14.464l3.328 5.888c-8.448 5.248-15.616 9.856-22.912 14.464zM853.888 778.88c-6.528 0-13.824 0-20.352-0.64l0.64-6.528c9.216 0.64 17.664 0.64 26.88 0.64v6.528H853.888z m14.464 0v-6.528c9.216-0.64 17.664-1.28 26.88-1.92l0.64 6.528c-9.856 0.64-19.072 1.28-27.52 1.92zM827.008 778.24c-9.216-0.64-18.304-1.92-27.52-3.968l1.28-6.528c7.808 1.92 17.024 3.328 26.24 3.968v6.528z m-34.048-5.888c-9.216-2.56-17.664-5.888-26.24-9.856l3.328-5.888c7.168 3.968 15.744 6.528 24.96 9.216l-2.048 6.528z m-32.768-13.056c-7.808-4.608-15.744-10.496-21.632-17.664l5.248-4.608c5.888 6.528 12.416 12.416 19.712 16.384l-3.328 5.888z m-25.6-23.68c-5.248-7.808-9.216-16.384-11.776-25.6l6.528-1.28c1.92 8.576 5.888 16.384 10.496 23.552l-5.248 3.328z m-13.056-32.768c-0.64-5.888-1.28-11.136-1.28-17.024 0-3.328 0-7.168 0.64-10.496l6.528 0.64c0 3.328-0.64 7.168-0.64 10.496 0 5.888 0.64 11.136 1.28 15.744l-6.528 0.64z m6.528-34.048l-6.528-0.64c1.28-8.576 3.328-17.664 5.888-26.88l6.528 1.92c-2.56 7.936-4.608 17.152-5.888 25.6z m7.168-32.128l-6.528-1.92c2.56-8.576 5.888-17.024 9.216-25.6l6.528 2.56c-3.328 7.936-6.528 16.512-9.216 24.96z m11.904-31.36l-5.888-2.56c3.328-7.808 7.168-16.384 11.776-24.96l5.888 3.328c-3.968 7.808-7.936 15.616-11.776 24.192z m14.976-30.848l-5.888-3.328c3.968-7.808 8.576-15.744 13.056-23.552l5.888 3.328c-4.48 7.808-9.088 15.616-13.056 23.552z m16.384-28.8l-5.888-3.328c4.608-7.168 9.216-15.104 14.464-22.912l5.888 3.968c-4.608 6.528-9.216 14.336-14.464 22.272z m18.432-28.928l-5.888-3.968c4.608-7.168 9.856-15.104 15.104-22.272l5.248 3.968c-4.608 7.296-9.216 15.104-14.464 22.272z m18.944-28.16l-5.248-3.968c5.248-7.168 10.496-14.464 16.384-22.272l5.248 3.968c-5.888 7.936-11.136 15.104-16.384 22.272z m20.352-26.88l-5.248-3.968c5.248-7.168 11.136-14.464 16.384-21.632l5.248 3.968c-5.888 7.296-11.136 14.464-16.384 21.632z m20.992-26.88l-5.248-3.968c5.248-7.168 11.136-13.824 17.024-20.992l5.248 4.608c-5.888 6.016-11.776 13.184-17.024 20.352z m20.992-26.88l-5.248-4.608c5.888-6.528 11.136-13.696 17.664-20.992l5.248 4.608c-6.528 7.936-11.776 14.464-17.664 20.992z m21.632-25.472l-5.248-4.608 3.968-4.608c4.608-5.248 9.216-11.136 13.056-16.384l5.248 3.968c-3.968 5.248-8.576 10.496-13.824 16.384l-3.2 5.248z m21.632-26.24l-5.248-3.968c5.888-7.808 11.136-15.104 15.744-21.632l5.888 3.968c-5.248 6.528-10.496 13.824-16.384 21.632z m-796.288-7.168l-3.328-5.888c7.808-3.968 15.744-8.576 24.192-12.416l3.328 5.888c-7.808 3.84-16.384 7.808-24.192 12.416z m30.08-15.744l-2.56-5.888c8.576-3.968 16.384-7.808 24.96-11.136l2.56 5.888c-8.576 3.84-17.024 7.168-24.96 11.136z m785.792-5.248l-5.888-3.328c5.248-7.808 9.216-15.744 13.056-23.552l5.888 2.56c-3.2 8.576-7.808 16.384-13.056 24.32z m-754.944-8.576l-2.56-5.888c8.576-3.968 17.024-7.168 24.96-10.496l2.56 6.528c-7.936 2.688-16.512 6.016-24.96 9.856z m31.488-13.056l-2.56-6.528 25.6-9.856 2.688 6.528c-9.344 3.328-17.28 6.528-25.728 9.856z m739.84-9.216l-5.888-2.688c3.328-7.808 5.888-16.384 7.808-24.96l6.528 1.28c-1.92 9.344-4.48 17.92-8.448 26.368z m-708.48-3.2l-2.56-6.528c8.576-3.328 17.024-5.888 25.6-9.216l1.92 6.528c-7.808 3.328-16.384 5.888-24.96 9.216z m32.128-11.904l-1.92-6.528c8.576-3.328 17.024-5.888 25.6-8.576l1.92 6.528c-8.576 3.328-17.024 6.016-25.6 8.576z m32.128-10.496l-1.92-6.528c8.576-2.56 17.024-5.888 26.24-8.576l1.92 6.528c-9.216 2.688-17.664 6.016-26.24 8.576z m653.44-7.808l-6.528-0.64c0-2.56 0.64-5.248 0.64-7.808 0-6.528-0.64-12.416-2.688-17.664l6.528-1.92c1.92 5.888 3.328 13.056 3.328 19.712-0.64 2.432-0.64 5.76-1.28 8.32z m-621.312-2.56l-1.92-6.528c8.576-2.56 17.664-5.248 26.24-7.808l1.92 6.528c-8.576 2.56-17.024 5.12-26.24 7.808z m32.768-9.856l-1.92-6.528c8.576-2.56 17.664-5.248 26.24-7.168l1.92 6.528c-8.576 2.56-17.664 4.48-26.24 7.168z m32.768-9.216l-1.92-6.528c8.576-2.56 17.664-4.608 26.24-7.168l1.92 6.528c-8.576 2.56-17.664 5.248-26.24 7.168z m32.768-8.448l-1.92-6.528c8.576-1.92 17.664-4.608 26.24-6.528l1.28 6.528c-7.936 1.92-17.024 3.84-25.6 6.528z m511.872-2.048c-3.328-7.168-8.576-13.824-15.744-19.712l4.608-5.248c7.808 6.528 13.824 13.824 17.664 22.272l-6.528 2.688z m-479.104-6.528l-1.28-6.528c8.576-1.92 17.664-3.968 26.88-5.888l1.28 6.528c-9.216 1.92-17.664 3.968-26.88 5.888z m33.408-7.168l-1.28-6.528c9.216-1.92 17.664-3.968 26.88-5.888l1.28 6.528c-9.216 1.92-18.304 3.84-26.88 5.888z m32.768-7.296l-1.28-6.528c9.216-1.92 17.664-3.968 26.88-5.248l1.28 6.528c-8.448 1.408-17.664 3.328-26.88 5.248z m391.936-2.56c-7.168-5.248-15.104-9.216-23.552-11.776l2.56-6.528c9.216 3.968 17.664 7.808 24.96 13.056l-3.968 5.248z m-358.528-3.968l-1.28-6.528c9.216-1.92 17.664-3.328 26.88-4.608l1.28 6.528c-8.448 1.408-17.664 2.688-26.88 4.608z m33.408-6.528l-1.28-6.528c9.216-1.28 17.664-3.328 26.88-4.608l1.28 6.528c-8.448 1.92-17.664 3.328-26.88 4.608z m295.68-3.968c-8.576-2.56-17.024-5.248-25.6-6.528l1.28-6.528c9.216 1.92 17.664 3.968 26.88 7.168l-2.56 5.888z m-262.144-1.28l-1.28-6.528c9.216-1.28 17.664-2.56 26.88-3.968l0.64 6.528c-7.936 1.28-17.152 2.688-26.24 3.968z m34.048-4.608l-0.64-6.528c9.216-1.28 18.304-1.92 26.88-3.328l0.64 6.528c-9.216 1.408-17.792 2.688-26.88 3.328z m195.328-1.92c-8.576-1.28-17.664-2.56-26.88-3.328l0.64-6.528c9.856 0.64 18.944 1.92 27.52 3.968l-1.28 5.888z m-161.92-1.28l-0.64-6.528 27.52-1.92 0.64 6.528c-9.216-0.128-18.304 0.512-27.52 1.92z m34.048-2.688l-0.64-6.528c9.216-0.64 18.304-1.28 27.52-1.28v6.528c-8.576 0-17.664 0.64-26.88 1.28z m94.336-0.64c-9.216-0.64-17.664-1.28-26.88-1.28v-6.528c9.216 0 18.944 0.64 27.52 1.28l-0.64 6.528z m-60.928-1.28v-6.528h27.52v6.528h-27.52zM902.4 775.68l-0.64-6.528c4.608-0.64 8.576-1.28 13.056-1.92l1.28 6.528c0.128-0.128-5.12 1.28-13.696 1.92z m0 0"  /><path fill="#1296db" d="M937.088 742.272c-9.216-8.576-24.192-15.744-43.904-15.744 0 0 23.552 0 41.344-14.464 11.136-9.216 18.944-24.192 18.944-45.824 0 0 0 28.8 18.944 46.592 9.216 8.576 22.912 13.824 41.344 13.824 0 0-22.912 0.64-40.576 14.464-11.136 9.216-19.712 24.96-19.712 45.824 0.768-0.128 2.688-27.008-16.384-44.672M45.184 412.544c-9.216-9.216-25.6-16.384-45.184-16.384 0 0 24.192 0 42.624-15.104 11.136-9.216 20.352-25.6 20.352-47.872 0 0 0 29.44 20.352 48.512 9.216 8.576 24.192 14.464 42.624 14.464 0 0-23.552 0.64-41.984 15.104-11.776 9.216-20.992 25.6-20.992 47.872-0.768 0 1.28-27.52-17.792-46.592m869.632 67.584c-4.608-4.608-12.416-9.216-22.272-9.216 0 0 11.776 0 20.992-8.576 5.888-5.248 9.856-13.824 9.856-26.24 0 0 0 16.384 9.856 26.88 4.608 4.608 11.776 7.808 20.992 7.808 0 0-11.776 0.64-20.352 8.576-5.888 5.248-10.496 13.824-10.496 26.24 0 0 0.64-14.976-8.576-25.472m89.216 164.48c-5.248-5.248-14.464-9.856-26.24-9.856 0 0 14.464 0 24.96-8.576 6.528-5.248 11.776-15.104 11.776-27.52 0 0 0 17.024 11.776 28.16 5.248 5.248 13.824 8.576 24.96 8.576 0 0-13.824 0.64-24.192 8.576-7.168 5.248-11.776 15.104-11.776 27.52-1.536 0-0.128-15.744-11.264-26.88M752.384 814.976c-3.328-3.328-8.576-5.248-15.104-5.248 0 0 8.576 0 14.464-5.248 3.968-3.328 6.528-8.576 6.528-15.744 0 0 0 9.856 6.528 16.384 3.328 2.688 7.808 4.608 14.464 4.608 0 0-7.808 0-14.464 5.248-3.968 3.328-7.168 8.576-7.168 15.744 0.64 0 1.28-9.216-5.248-15.744M606.208 430.336h-7.168v65.536h13.056v-47.232l26.88 47.232h13.824v-65.536h-13.056V476.16l-26.24-45.824h-7.296z m111.36 7.808c-5.888-6.528-13.056-9.216-22.912-9.216-9.856 0-17.024 3.328-22.912 9.216-5.888 6.528-8.576 15.104-8.576 25.6s2.56 18.944 8.576 24.96c5.888 5.888 13.056 9.216 22.912 9.216 9.856 0 17.664-3.328 22.912-9.216 5.888-5.888 8.576-14.464 8.576-24.96 0-11.136-3.328-19.712-8.576-25.6z m-10.496 41.984c-3.328 3.968-7.808 5.888-13.056 5.888s-9.856-1.92-13.056-5.888c-3.328-3.968-4.608-9.856-4.608-16.384 0-7.168 1.28-13.056 4.608-17.024 3.328-3.968 7.168-5.888 13.056-5.888s9.856 1.92 13.056 5.888c3.328 3.968 4.608 9.856 4.608 17.024 0.64 6.528-1.28 12.416-4.608 16.384z m-268.032 58.24c-25.6 34.688-97.024 30.848-97.664 30.848-3.328 0-6.528 2.688-7.168 5.888 0 3.328 2.56 6.528 5.888 7.168h9.216c21.632 0 75.392-3.328 99.584-36.096 1.92-2.56 1.28-7.168-1.28-9.216-2.048-2.432-5.888-1.792-8.576 1.408z m120.576 0c-1.92-2.56-6.528-3.328-9.216-1.28-2.56 1.92-3.328 6.528-1.28 9.216 24.192 32.768 77.952 36.096 99.584 36.096h9.216c3.328 0 6.528-3.328 5.888-7.168 0-3.968-3.328-6.528-7.168-5.888 0-0.768-70.784 3.84-97.024-30.976z m-104.192-18.304c-0.64-3.328-3.968-5.888-7.808-5.248-8.576 1.28-17.024 0-20.992-2.688-3.328-1.92-7.168-0.64-9.216 1.92-1.92 3.328-0.64 7.168 1.92 9.216 5.248 3.328 13.056 4.608 20.992 4.608 3.328 0 5.888 0 9.216-0.64 3.968 0 6.528-3.2 5.888-7.168z m121.856 5.248c3.328-1.92 4.608-5.888 2.688-8.576-1.92-3.328-5.888-4.608-8.576-2.688-7.168 3.968-16.384 5.248-20.992 3.968-3.328-0.64-7.168 1.28-7.808 4.608s1.28 7.168 4.608 7.808c1.92 0.64 3.968 0.64 6.528 0.64 7.296 0.128 16.384-1.792 23.552-5.76z m10.496 107.52c-1.92-2.56-6.528-3.328-9.216-1.28-0.64 0-34.688 26.88-80.64 26.88-45.184 0-70.144-26.24-70.144-26.24-2.56-2.56-6.528-2.56-9.216-0.64-2.56 2.688-2.56 6.528-0.64 9.216 1.28 1.28 28.8 30.848 80 30.848 50.432 0 87.168-28.8 89.088-30.208 2.816-1.408 3.456-6.016 0.768-8.576z m0 0"  /><path fill="#1296db" d="M693.376 508.928c-1.28-3.328-5.248-5.248-8.576-3.968-3.328 1.28-5.248 5.248-3.968 8.576 7.168 20.352 11.136 41.984 11.136 63.616 0 52.48-21.632 102.272-60.288 138.24-15.744 1.28-34.048 7.808-53.12 20.352-56.96 39.936-49.152 62.976-46.592 67.456 1.28 1.92 3.328 3.968 5.888 3.968 1.28 0 1.92 0 2.56-0.64 3.328-1.92 4.608-5.248 2.688-8.576 0 0-5.248-17.024 42.624-51.072 36.736-25.6 70.784-20.352 80-9.856 1.28 1.28 4.608 5.248-0.64 11.776-28.8 7.808-45.184 18.944-50.432 32.768-3.328 10.496 0.64 19.712 3.968 23.552 1.92 2.688 6.528 3.328 9.216 1.28 2.56-1.92 3.328-6.528 1.28-9.216 0 0-3.968-4.608-1.28-11.136 1.92-5.248 9.856-16.384 43.264-24.96 1.28 0 1.92-0.64 3.328-1.92 9.216-9.856 10.496-21.632 2.56-30.848-5.248-5.888-14.464-10.496-26.24-12.416 35.328-37.376 55.04-87.168 55.04-138.24-0.64-24.192-4.608-47.104-12.416-68.736zM437.12 735.616c-22.912-16.384-45.184-21.632-63.616-20.992-38.016-35.328-59.648-85.888-59.648-138.24 0-104.192 84.608-189.44 189.44-189.44 38.016 0 75.392 11.136 106.88 32.768 3.328 1.92 7.168 1.28 9.216-1.92 1.92-3.328 1.28-7.168-1.92-9.216-33.408-22.912-73.344-35.328-114.048-35.328-111.36 0-202.496 90.496-202.496 202.496 0 52.48 20.992 102.912 56.96 140.288-7.808 2.56-13.824 5.888-17.664 10.496-7.808 9.216-6.528 20.992 2.688 30.848 0.64 0.64 1.92 1.28 3.328 1.92 32.768 8.576 40.576 18.944 42.624 24.192 1.92 5.888-1.28 11.136-1.28 11.136-1.92 2.688-1.92 7.168 1.28 9.216 2.56 1.92 7.168 1.92 9.216-1.28 3.328-3.968 7.168-13.056 3.968-23.552-4.608-13.824-21.632-24.96-50.432-32.768-5.248-6.528-1.92-10.496-0.64-11.776 8.576-10.496 43.264-15.744 80 9.856 47.872 33.408 42.624 50.432 42.624 50.432-1.92 3.328-0.64 7.168 2.56 8.576 0.64 0.64 1.92 0.64 3.328 0.64 2.56 0 4.608-1.28 5.888-3.328 0.896-1.408 9.344-24.96-48.256-65.024z m0 0"  /><path fill="#1296db" d="M645.504 814.976H359.808c-4.608 0-7.808-3.968-7.808-7.808 0-4.608 3.968-7.808 7.808-7.808h285.696c4.608 0 7.808 3.968 7.808 7.808 0.768 3.84-3.2 7.808-7.808 7.808zM578.688 852.352H292.864c-4.608 0-7.808-3.968-7.808-7.808 0-3.968 3.968-7.808 7.808-7.808H578.688c4.608 0 7.808 3.968 7.808 7.808 0 3.84-3.2 7.808-7.808 7.808z m104.192-37.376h-11.776c-4.608 0-7.808-3.968-7.808-7.808 0-4.608 3.968-7.808 7.808-7.808h11.776c4.608 0 7.808 3.968 7.808 7.808 0 3.84-3.2 7.808-7.808 7.808z m-414.848 37.376h-7.808c-4.608 0-7.808-3.968-7.808-7.808 0-3.968 3.968-7.808 7.808-7.808h7.808c4.608 0 7.808 3.968 7.808 7.808 0 3.84-3.2 7.808-7.808 7.808z m0 0"  /></svg>