<?xml version="1.0" standalone="no"?><!DOCTYPE svg PUBLIC "-//W3C//DTD SVG 1.1//EN" "http://www.w3.org/Graphics/SVG/1.1/DTD/svg11.dtd"><svg class="icon" width="28px" height="28.00px" viewBox="0 0 1024 1024" version="1.1" xmlns="http://www.w3.org/2000/svg"><path fill="#f51933" d="M512 232.448c-194.048 0-363.008 109.568-448 269.824 84.992 160.256 253.44 269.824 448 269.824s363.008-109.568 448-269.824c-85.504-160.768-253.952-269.824-448-269.824z m0 442.368c-95.232 0-172.544-77.312-172.544-172.544s77.312-172.544 172.544-172.544 172.544 77.312 172.544 172.544-77.312 172.544-172.544 172.544z"  /><path fill="#f51933" d="M419.84 502.272c0 50.688 40.96 91.648 91.648 91.648s91.648-40.96 91.648-91.648-40.96-91.648-91.648-91.648-91.648 40.96-91.648 91.648z"  /></svg>