<?xml version="1.0" standalone="no"?><!DOCTYPE svg PUBLIC "-//W3C//DTD SVG 1.1//EN" "http://www.w3.org/Graphics/SVG/1.1/DTD/svg11.dtd"><svg class="icon" width="16px" height="16.00px" viewBox="0 0 1024 1024" version="1.1" xmlns="http://www.w3.org/2000/svg"><path fill="#8a8a8a" d="M742.8096 78.7456c-89.4976 0-173.7728 37.7856-230.0928 99.1232-0.2048-0.3072-0.512-0.512-0.7168-0.7168-0.2048 0.3072-0.512 0.512-0.7168 0.7168-56.2176-61.44-140.5952-99.1232-230.0928-99.1232C122.6752 78.7456 0 192.1024 0 338.432c0 179.4048 173.7728 323.4816 437.1456 545.3824l74.1376 61.44 0.7168-0.6144 0.7168 0.6144 74.1376-61.44C850.2272 661.9136 1024 517.9392 1024 338.432c0-146.3296-122.6752-259.6864-281.1904-259.6864z"  /></svg>